<?xml version="1.0" encoding="utf-8"?>
<!-- Generator: Adobe Illustrator 16.0.4, SVG Export Plug-In . SVG Version: 6.00 Build 0)  -->
<!DOCTYPE svg PUBLIC "-//W3C//DTD SVG 1.1//EN" "http://www.w3.org/Graphics/SVG/1.1/DTD/svg11.dtd">
<svg version="1.1" id="Capa_1" xmlns="http://www.w3.org/2000/svg" xmlns:xlink="http://www.w3.org/1999/xlink" x="0px" y="0px"
	 width="16px" height="16px" viewBox="0 0 16 16" enable-background="new 0 0 16 16" xml:space="preserve">
<path d="M13.961,2.309c-0.051-0.122-0.148-0.22-0.27-0.27L13.5,2h-5C8.224,2,8,2.224,8,2.5S8.224,3,8.5,3h3.793L3,12.293V8.5
	C3,8.224,2.776,8,2.5,8S2,8.224,2,8.5v5.002l0.038,0.189l0.104,0.156l0.004,0.006l0.004,0.004l0.158,0.104L2.5,14h5
	C7.776,14,8,13.775,8,13.5S7.776,13,7.5,13H3.707L13,3.707V7.5C13,7.776,13.225,8,13.5,8S14,7.776,14,7.5v-5L13.961,2.309z"/>
</svg>