<?xml version="1.0" encoding="UTF-8" standalone="no"?>
<svg width="960px" height="380px" viewBox="0 0 960 380" version="1.1" xmlns="http://www.w3.org/2000/svg" xmlns:xlink="http://www.w3.org/1999/xlink">
    <!-- Generator: Sketch 40.1 (33804) - http://www.bohemiancoding.com/sketch -->
    <title>cvct_logo_primary</title>
    <desc>Created with Sketch.</desc>
    <defs></defs>
    <g id="Welcome" stroke="none" stroke-width="1" fill="none" fill-rule="evenodd">
        <g id="Logo_civiciti-_vector" transform="translate(-241.000000, -351.000000)">
            <g id="cvct_logo_primary" transform="translate(292.000000, 396.000000)">
                <path d="M656.946968,280.098406 L656.946968,94.9998563 C656.946968,89.2603377 660.33948,86.3906214 667.124606,86.3906214 C674.192446,86.3906214 677.726312,89.2603377 677.726312,94.9998563 L677.726312,280.098406 C677.726312,282.394214 676.666152,284.546501 674.5458,286.555332 C672.425449,288.564164 669.951742,289.568564 667.124606,289.568564 C664.29747,289.568564 661.894441,288.635907 659.915446,286.770563 C657.936451,284.90522 656.946968,282.681189 656.946968,280.098406 L656.946968,280.098406 Z M743.261168,13.8361586 C743.261168,11.2542372 744.336687,9.10266837 746.487758,7.38138744 C748.638829,5.66010652 751.004971,4.79947897 753.586256,4.79947897 C756.454351,4.79947897 758.963896,5.66010652 761.114967,7.38138744 C763.266038,9.10266837 764.341557,11.2542372 764.341557,13.8361586 L764.341557,48.2227095 L802.220406,48.2227095 C804.514882,48.2227095 806.450817,49.155056 808.028269,51.019777 C809.605721,52.884498 810.394435,55.1077858 810.394435,57.6897072 C810.394435,59.9847484 809.534019,62.0645983 807.813163,63.9293193 C806.092306,65.7940403 804.228073,66.7263869 802.220406,66.7263869 L764.341557,66.7263869 L764.341557,279.358899 C764.341556,282.034113 762.446796,289.568561 753.586256,289.568564 C744.725716,289.568568 743.261168,282.749697 743.261168,279.358899 L743.261168,13.8361586 Z M829.575368,280.098406 L829.575368,94.9998563 C829.575368,89.2603377 832.96788,86.3906214 839.753006,86.3906214 C846.820846,86.3906214 850.354713,89.2603377 850.354713,94.9998563 L850.354713,280.098406 C850.354713,282.394214 849.294553,284.546501 847.174201,286.555332 C845.053849,288.564164 842.580142,289.568564 839.753006,289.568564 C836.92587,289.568564 834.522841,288.635907 832.543846,286.770563 C830.564851,284.90522 829.575368,282.681189 829.575368,280.098406 L829.575368,280.098406 Z" id="civiciti-copy-8" fill="#4A4A4A"></path>
                <path d="M175.484228,50.5945075 C178.453736,47.7947974 182.098077,46.3949634 186.41736,46.3949634 C190.466689,46.3949634 193.976054,47.7947974 196.945561,50.5945075 C199.915069,53.3942175 201.3998,56.6604969 201.3998,60.3934437 C201.3998,64.3930295 199.915069,67.8592852 196.945561,70.7923148 C193.976054,73.7253444 190.466689,75.1918372 186.41736,75.1918372 C182.098077,75.1918372 178.453736,73.7253444 175.484228,70.7923148 C172.514721,67.8592852 171.029989,64.3930295 171.029989,60.3934437 C171.029989,56.6604969 172.514721,53.3942175 175.484228,50.5945075 Z" id="Path" fill="#71B2ED"></path>
                <path d="M424.836362,32.9964179 C427.805869,30.1967078 431.45021,28.7968738 435.769494,28.7968738 C439.818822,28.7968738 443.328188,30.1967078 446.297695,32.9964179 C449.267203,35.796128 450.751934,39.0624074 450.751934,42.7953541 C450.751934,46.7949399 449.267203,50.2611956 446.297695,53.1942252 C443.328188,56.1272548 439.818822,57.5937476 435.769494,57.5937476 C431.45021,57.5937476 427.805869,56.1272548 424.836362,53.1942252 C421.866854,50.2611956 420.382123,46.7949399 420.382123,42.7953541 C420.382123,39.0624074 421.866854,35.796128 424.836362,32.9964179 Z" id="Path" fill="#F67223"></path>
                <path d="M656.605973,16.9981547 C659.575481,14.1984446 663.219822,12.7986106 667.539105,12.7986106 C671.588434,12.7986106 675.097799,14.1984446 678.067307,16.9981547 C681.036814,19.7978647 682.521546,23.0641442 682.521546,26.7970909 C682.521546,30.7966767 681.036814,34.2629324 678.067307,37.195962 C675.097799,40.1289916 671.588434,41.5954844 667.539105,41.5954844 C663.219822,41.5954844 659.575481,40.1289916 656.605973,37.195962 C653.636466,34.2629324 652.151734,30.7966767 652.151734,26.7970909 C652.151734,23.0641442 653.636466,19.7978647 656.605973,16.9981547 Z" id="Path" fill="#7AC329"></path>
                <path d="M829.234374,4.1995441 C832.203881,1.39983403 835.848222,0 840.167506,0 C844.216834,0 847.7262,1.39983403 850.695707,4.1995441 C853.665214,6.99925416 855.149946,10.2655336 855.149946,13.9984803 C855.149946,17.9980661 853.665214,21.4643218 850.695707,24.3973514 C847.7262,27.330381 844.216834,28.7968738 840.167506,28.7968738 C835.848222,28.7968738 832.203881,27.330381 829.234374,24.3973514 C826.264866,21.4643218 824.780135,17.9980661 824.780135,13.9984803 C824.780135,10.2655336 826.264866,6.99925416 829.234374,4.1995441 Z" id="Path" fill="#BD0FE1"></path>
                <path d="M481.121745,210.073062 L481.121745,165.886124 C481.121745,142.395443 487.891038,123.273744 501.429826,108.52045 C514.968614,93.7671573 534.991468,86.3906214 561.49899,86.3906214 C577.745535,86.3906214 591.426632,89.3269124 602.542689,95.1995825 C613.658747,101.072253 619.216692,106.873218 619.216692,112.602652 C619.216692,115.180897 618.219112,117.544253 616.223922,119.692791 C614.228733,121.841329 611.94855,122.915582 609.383306,122.915582 C607.95817,122.915582 605.46422,121.554862 601.901381,118.83338 C598.338543,116.111899 593.136876,113.318842 586.296225,110.454125 C579.455574,107.589408 571.332423,106.157071 561.926528,106.157071 C542.829712,106.157071 528.07978,111.456718 517.67629,122.056171 C507.2728,132.655624 502.071134,147.265462 502.071134,165.886124 L502.071134,210.073062 C502.071134,228.980195 507.201545,243.66165 517.462521,254.117868 C527.723497,264.574085 542.687196,269.802115 562.354067,269.802115 C572.330016,269.802115 580.880701,268.369778 588.006379,265.505061 C595.132057,262.640344 600.547491,259.77567 604.252843,256.910953 C607.958196,254.046236 610.665913,252.613899 612.376076,252.613899 C614.94132,252.613899 617.150247,253.688151 619.002923,255.836689 C620.855599,257.985227 621.781923,260.348583 621.781923,262.926829 C621.781923,268.942734 616.010211,274.886933 604.466613,280.759603 C592.923015,286.632273 578.600617,289.568564 561.49899,289.568564 C535.276495,289.568564 515.324897,282.263645 501.643595,267.653588 C487.962293,253.043531 481.121745,235.450041 481.121745,211.672889 L481.121745,210.073062 Z M425.177356,280.098406 L425.177356,94.9998563 C425.177356,89.2603377 428.569868,86.3906214 435.354994,86.3906214 C442.422834,86.3906214 445.956701,89.2603377 445.956701,94.9998563 L445.956701,280.098406 C445.956701,282.394214 444.896541,284.546501 442.776189,286.555332 C440.655837,288.564164 438.18213,289.568564 435.354994,289.568564 C432.527859,289.568564 430.124829,288.635907 428.145834,286.770563 C426.166839,284.90522 425.177356,282.681189 425.177356,280.098406 Z M231.769612,96.2795479 C231.769612,93.4131781 232.978102,91.0484584 235.395118,89.185318 C237.812135,87.3221777 240.584553,86.3906214 243.712457,86.3906214 C248.262135,86.3906214 251.105641,88.1104175 252.243061,91.5500613 L310.677697,250.872765 L369.112333,94.1297813 C371.102817,88.9703156 373.946323,86.3906214 377.642936,86.3906214 C380.486485,86.3906214 383.258904,87.3221777 385.960275,89.185318 C388.661646,91.0484584 390.012312,93.2698617 390.012312,95.8495946 L388.306191,102.728848 L320.914421,283.549218 C318.923937,287.562136 315.51173,289.568564 310.677697,289.568564 C305.843664,289.568564 302.573632,287.562136 300.867502,283.549218 L233.475732,102.728848 C232.338313,99.289204 231.769612,95.5396325 231.769612,94.6797216 L231.769612,96.2795479 Z M175.825223,280.098406 L175.825223,94.9998563 C175.825223,89.2603377 179.217735,86.3906214 186.002861,86.3906214 C193.0707,86.3906214 196.604567,89.2603377 196.604567,94.9998563 L196.604567,280.098406 C196.604567,282.394214 195.544407,284.546501 193.424055,286.555332 C191.303703,288.564164 188.829996,289.568564 186.002861,289.568564 C183.175725,289.568564 180.772695,288.635907 178.7937,286.770563 C176.814705,284.90522 175.825223,282.681189 175.825223,280.098406 Z M0,165.886124 C0,142.395443 6.76929244,123.273744 20.3080804,108.52045 C33.8468684,93.7671573 53.8697229,86.3906214 80.3772446,86.3906214 C96.6237902,86.3906214 110.304886,89.3269124 121.420944,95.1995825 C132.537001,101.072253 138.094947,106.873218 138.094947,112.602652 C138.094947,115.180897 137.097367,117.544253 135.102177,119.692791 C133.106987,121.841329 130.826805,122.915582 128.261561,122.915582 C126.836425,122.915582 124.342475,121.554862 120.779636,118.83338 C117.216797,116.111899 112.01513,113.318842 105.17448,110.454125 C98.3338289,107.589408 90.2106779,106.157071 80.8047831,106.157071 C61.7079664,106.157071 46.9580344,111.456718 36.5545447,122.056171 C26.151055,132.655624 20.9493882,147.265462 20.9493882,165.886124 L20.9493882,210.073062 C20.9493882,228.980195 26.0797993,243.66165 36.3407755,254.117868 C46.6017516,264.574085 61.5654507,269.802115 81.2323217,269.802115 C91.2082707,269.802115 99.7589559,268.369778 106.884634,265.505061 C114.010312,262.640344 119.425746,259.77567 123.131098,256.910953 C126.836451,254.046236 129.544168,252.613899 131.25433,252.613899 C133.819574,252.613899 136.028501,253.688151 137.881178,255.836689 C139.733854,257.985227 140.660178,260.348583 140.660178,262.926829 C140.660178,268.942734 134.888466,274.886933 123.344867,280.759603 C111.801269,286.632273 97.4788715,289.568564 80.3772446,289.568564 C54.15475,289.568564 34.2031512,282.263645 20.5218497,267.653588 C6.84054815,253.043531 0,233.850214 0,210.073062 L0,165.886124 Z" id="Combined-Shape" fill="#4A4A4A"></path>
            </g>
        </g>
    </g>
</svg>